<?xml version="1.0" standalone="no"?>
<!DOCTYPE svg PUBLIC "-//W3C//DTD SVG 20010904//EN"
 "http://www.w3.org/TR/2001/REC-SVG-20010904/DTD/svg10.dtd">
<svg version="1.0" xmlns="http://www.w3.org/2000/svg"
 width="500.000000pt" height="500.000000pt" viewBox="0 0 500.000000 500.000000"
 preserveAspectRatio="xMidYMid meet">
<metadata>
Created by potrace 1.16, written by Peter Selinger 2001-2019
</metadata>
<g transform="translate(0.000000,500.000000) scale(0.100000,-0.100000)"
fill="#000000" stroke="none">
<path d="M2160 4984 c-623 -88 -1189 -401 -1592 -884 -296 -354 -501 -827
-558 -1290 -15 -125 -12 -535 5 -655 77 -542 328 -1047 710 -1430 391 -390
917 -647 1465 -715 147 -18 526 -13 677 10 519 76 990 307 1367 670 420 405
674 911 751 1493 20 156 20 478 0 634 -73 558 -315 1053 -710 1449 -378 379
-821 609 -1360 706 -150 27 -600 34 -755 12z m1103 -1624 c552 -334 559 -339
538 -403 -10 -30 -64 -66 -549 -369 -295 -184 -547 -341 -560 -347 -16 -9
-115 -11 -360 -9 l-337 3 -381 247 c-209 136 -388 256 -397 265 -25 29 -29 65
-10 96 25 38 1462 825 1511 826 26 1 138 -63 545 -309z m491 -654 c20 -8 37
-25 45 -45 29 -68 48 -53 -723 -536 -503 -314 -720 -445 -740 -445 -21 0 -166
94 -549 357 -287 196 -529 365 -539 375 -27 27 -24 89 6 117 51 48 61 43 581
-315 264 -181 486 -333 493 -338 8 -4 256 145 678 409 567 355 690 429 712
434 1 1 17 -5 36 -13z m24 -368 c30 -33 35 -68 15 -101 -27 -42 -1417 -907
-1458 -907 -24 0 -144 77 -550 356 -286 196 -528 365 -538 376 -42 50 -3 138
62 138 33 0 18 10 650 -423 205 -142 377 -257 380 -257 4 0 308 189 676 419
721 451 716 449 763 399z"/>
<path d="M2087 3145 c-346 -189 -630 -345 -632 -347 -4 -4 561 -374 587 -383
11 -5 37 11 81 48 69 58 127 94 331 203 129 69 238 155 288 227 17 25 10 21
-33 -18 -74 -69 -103 -85 -298 -169 -186 -80 -257 -119 -330 -183 -27 -24 -51
-43 -54 -43 -2 0 -12 25 -22 55 -39 126 2 282 100 380 77 77 182 119 479 189
133 31 202 63 261 123 25 25 48 44 50 41 14 -14 69 -162 81 -217 28 -133 11
-305 -41 -419 l-24 -53 38 23 c155 94 600 374 601 378 0 4 -669 413 -789 481
l-46 26 -628 -342z"/>
</g>
</svg>
